<svg width="37" height="51" viewBox="0 0 37 51" fill="none" xmlns="http://www.w3.org/2000/svg">
<path d="M16.6517 0.236495C12.8054 0.653841 9.09056 2.34363 6.20053 4.99362C3.14998 7.77881 1.01533 11.712 0.240256 15.9472C-0.0817882 17.7415 -0.0817883 20.8084 0.250596 22.6655C0.532754 24.2721 1.26745 26.6191 1.96226 28.1318C3.51289 31.543 5.61701 34.4951 10.8323 40.5563C14.4269 44.7292 16.2794 47.097 17.7793 49.4027C18.4136 50.3725 18.5544 50.4042 19.0276 49.6322C20.1553 47.7756 22.5115 44.7603 26.2465 40.4001C29.7102 36.3527 30.9487 34.7981 32.358 32.7741C35.8419 27.7252 37.4324 22.3629 36.8991 17.366C35.993 8.75993 29.8008 1.89567 21.6153 0.434961C20.2666 0.195166 17.9005 0.101291 16.6517 0.236495Z" fill="#AE73CE"/>
<path d="M26.3454 19.3834C26.3454 23.8502 22.8506 27.4712 18.5394 27.4712C14.2283 27.4712 10.7334 23.8502 10.7334 19.3834C10.7334 14.9165 14.2283 11.2955 18.5394 11.2955C22.8506 11.2955 26.3454 14.9165 26.3454 19.3834Z" fill="white"/>
</svg>
