<svg width="91" height="96" viewBox="0 0 91 96" fill="none" xmlns="http://www.w3.org/2000/svg">
<g filter="url(#filter0_d_97_252)">
<circle cx="48" cy="48" r="22" fill="white"/>
</g>
<path fill-rule="evenodd" clip-rule="evenodd" d="M49 42C49 41.4477 48.5523 41 48 41C47.4477 41 47 41.4477 47 42V47H42C41.4477 47 41 47.4477 41 48C41 48.5523 41.4477 49 42 49H47V54C47 54.5523 47.4477 55 48 55C48.5523 55 49 54.5523 49 54V49H54C54.5523 49 55 48.5523 55 48C55 47.4477 54.5523 47 54 47H49V42Z" fill="#C69FDB"/>
<defs>
<filter id="filter0_d_97_252" x="0" y="0" width="96" height="96" filterUnits="userSpaceOnUse" color-interpolation-filters="sRGB">
<feFlood flood-opacity="0" result="BackgroundImageFix"/>
<feColorMatrix in="SourceAlpha" type="matrix" values="0 0 0 0 0 0 0 0 0 0 0 0 0 0 0 0 0 0 127 0" result="hardAlpha"/>
<feOffset/>
<feGaussianBlur stdDeviation="13"/>
<feComposite in2="hardAlpha" operator="out"/>
<feColorMatrix type="matrix" values="0 0 0 0 0 0 0 0 0 0 0 0 0 0 0 0 0 0 0.2 0"/>
<feBlend mode="normal" in2="BackgroundImageFix" result="effect1_dropShadow_97_252"/>
<feBlend mode="normal" in="SourceGraphic" in2="effect1_dropShadow_97_252" result="shape"/>
</filter>
</defs>
</svg>
